<svg xmlns="http://www.w3.org/2000/svg" xmlns:xlink="http://www.w3.org/1999/xlink" width="77.13" height="75" viewBox="0 0 77.13 75">
  <defs>
    <clipPath id="clip-path">
      <rect id="Rectangle_703" data-name="Rectangle 703" width="77.13" height="75" fill="none"/>
    </clipPath>
    <clipPath id="clip-path-3">
      <rect id="Rectangle_678" data-name="Rectangle 678" width="8.854" height="8.784" fill="none"/>
    </clipPath>
  </defs>
  <g id="Artwork_160" data-name="Artwork 160" transform="translate(38.565 37.5)">
    <g id="Group_209" data-name="Group 209" transform="translate(-38.565 -37.5)" clip-path="url(#clip-path)">
      <g id="Group_208" data-name="Group 208" clip-path="url(#clip-path)">
        <path id="Path_425" data-name="Path 425" d="M3.4,189.7v-1.469A1.314,1.314,0,0,1,4.753,187H76.587a1.315,1.315,0,0,1,1.392,1.237V189.7Z" transform="translate(-2.085 -114.699)" fill="#6db434"/>
        <rect id="Rectangle_670" data-name="Rectangle 670" width="74.579" height="0.541" transform="translate(1.315 74.463)" fill="#322d2d"/>
        <rect id="Rectangle_671" data-name="Rectangle 671" width="71.872" height="55.205" transform="translate(2.629 17.089)" fill="#e5e5e5"/>
        <rect id="Rectangle_672" data-name="Rectangle 672" width="71.872" height="1.72" transform="translate(2.629 17.089)" fill="#b2b2b2"/>
        <rect id="Rectangle_673" data-name="Rectangle 673" width="77.13" height="11.9" transform="translate(0 5.181)" fill="#ec1c24"/>
        <rect id="Rectangle_674" data-name="Rectangle 674" width="77.13" height="0.379" transform="translate(0 17.089)" fill="#c0272d"/>
        <path id="Path_426" data-name="Path 426" d="M92.55,76.039H68V17.273L80.294,6.1,92.55,17.273Z" transform="translate(-41.71 -3.742)" fill="#f1f1f1"/>
        <path id="Path_427" data-name="Path 427" d="M92.55,18.162v-.889L80.294,6.1,68,17.273v.889L80.294,7.453Z" transform="translate(-41.71 -3.742)" fill="#cbcbcb"/>
        <rect id="Rectangle_675" data-name="Rectangle 675" width="9.975" height="25.207" transform="translate(33.597 47.09)" fill="#493d47"/>
        <path id="Path_428" data-name="Path 428" d="M96.5,120.3v26.329H95.375v-1.121h0V121.421H86.521v24.086h0v1.121H85.4V120.3Z" transform="translate(-52.383 -73.79)" fill="#1a1a1a"/>
        <rect id="Rectangle_676" data-name="Rectangle 676" width="12.681" height="2.227" transform="translate(32.205 72.298)" fill="#1a1a1a"/>
        <path id="Path_429" data-name="Path 429" d="M91.1,135.183l3.325-.077H97.75l-.116.116c-.039-2.822-.039-5.606-.039-8.428l.193.193H91.1l.155-.155v8.428Zm0,0V126.6h7.036v.193c-.039,2.822,0,5.606-.039,8.428v.116h-3.48l-3.325-.077" transform="translate(-55.879 -77.654)" fill="#7b708a"/>
        <path id="Path_430" data-name="Path 430" d="M91.1,167.944l3.325-.077H97.75l-.116.116c-.039-2.822-.039-5.606-.039-8.428l.193.193H91.1l.155-.155v8.428Zm0,0V159.4h7.036v.193c-.039,2.822,0,5.606-.039,8.428v.116h-3.48l-3.325-.077" transform="translate(-55.879 -97.773)" fill="#7b708a"/>
        <path id="Path_431" data-name="Path 431" d="M90.3,154.541a.541.541,0,1,0,.541-.541.541.541,0,0,0-.541.541" transform="translate(-55.388 -94.461)" fill="#1a1a1a"/>
        <rect id="Rectangle_677" data-name="Rectangle 677" width="8.854" height="12.159" transform="translate(34.138 19.022)" fill="#9fd6ed"/>
        <path id="Path_432" data-name="Path 432" d="M85.3,60.7H96.512V46.2H85.3ZM86.46,47.36h8.854V59.5H86.46Z" transform="translate(-52.321 -28.338)" fill="#1a1a1a"/>
        <g id="Group_189" data-name="Group 189" transform="translate(34.138 19.331)" opacity="0.3">
          <g id="Group_188" data-name="Group 188" clip-path="url(#clip-path-3)">
            <path id="Path_433" data-name="Path 433" d="M88.3,50l8.854,6.8v1.972l-8.854-6.8Z" transform="translate(-88.3 -50)" fill="#f1f1f1"/>
          </g>
        </g>
        <g id="Group_191" data-name="Group 191" transform="translate(34.138 22.385)" opacity="0.3">
          <g id="Group_190" data-name="Group 190" clip-path="url(#clip-path-3)">
            <path id="Path_434" data-name="Path 434" d="M88.3,57.9l8.854,6.843v1.933l-8.854-6.8Z" transform="translate(-88.3 -57.9)" fill="#f1f1f1"/>
          </g>
        </g>
        <rect id="Rectangle_680" data-name="Rectangle 680" width="13.841" height="3.58" transform="translate(31.625 28.764)" fill="#c0272d"/>
        <rect id="Rectangle_681" data-name="Rectangle 681" width="8.854" height="12.159" transform="translate(10.013 23.081)" fill="#9fd6ed"/>
        <path id="Path_435" data-name="Path 435" d="M22.9,71.137H34.112V56.6H22.9ZM24.06,57.8h8.892v12.14H24.06Z" transform="translate(-14.046 -34.717)" fill="#1a1a1a"/>
        <g id="Group_193" data-name="Group 193" transform="translate(10.013 23.39)" opacity="0.3">
          <g id="Group_192" data-name="Group 192" clip-path="url(#clip-path-3)">
            <path id="Path_436" data-name="Path 436" d="M25.9,60.5l8.892,6.8v1.972l-8.892-6.8Z" transform="translate(-25.9 -60.5)" fill="#f1f1f1"/>
          </g>
        </g>
        <g id="Group_195" data-name="Group 195" transform="translate(10.013 26.445)" opacity="0.3">
          <g id="Group_194" data-name="Group 194" clip-path="url(#clip-path-3)">
            <path id="Path_437" data-name="Path 437" d="M25.9,68.4l8.892,6.8v1.972l-8.892-6.8Z" transform="translate(-25.9 -68.4)" fill="#f1f1f1"/>
          </g>
        </g>
        <rect id="Rectangle_684" data-name="Rectangle 684" width="13.841" height="3.58" transform="translate(7.539 32.824)" fill="#c0272d"/>
        <rect id="Rectangle_685" data-name="Rectangle 685" width="8.854" height="12.159" transform="translate(10.013 46.355)" fill="#9fd6ed"/>
        <path id="Path_438" data-name="Path 438" d="M22.9,131.337H34.112V116.8H22.9ZM24.06,118h8.892v12.14H24.06Z" transform="translate(-14.046 -71.643)" fill="#1a1a1a"/>
        <g id="Group_197" data-name="Group 197" transform="translate(10.013 46.665)" opacity="0.3">
          <g id="Group_196" data-name="Group 196" clip-path="url(#clip-path-3)">
            <path id="Path_439" data-name="Path 439" d="M25.9,120.7l8.892,6.8v1.972l-8.892-6.8Z" transform="translate(-25.9 -120.7)" fill="#f1f1f1"/>
          </g>
        </g>
        <g id="Group_199" data-name="Group 199" transform="translate(10.013 49.719)" opacity="0.3">
          <g id="Group_198" data-name="Group 198" clip-path="url(#clip-path-3)">
            <path id="Path_440" data-name="Path 440" d="M25.9,128.6l8.892,6.8v1.972l-8.892-6.8Z" transform="translate(-25.9 -128.6)" fill="#f1f1f1"/>
          </g>
        </g>
        <rect id="Rectangle_688" data-name="Rectangle 688" width="13.841" height="3.58" transform="translate(7.539 56.098)" fill="#c0272d"/>
        <rect id="Rectangle_689" data-name="Rectangle 689" width="8.854" height="12.159" transform="translate(58.07 23.081)" fill="#9fd6ed"/>
        <path id="Path_441" data-name="Path 441" d="M147.2,71.137h11.212V56.6H147.2ZM148.36,57.8h8.854v12.14H148.36Z" transform="translate(-90.29 -34.717)" fill="#1a1a1a"/>
        <g id="Group_201" data-name="Group 201" transform="translate(58.07 23.39)" opacity="0.3">
          <g id="Group_200" data-name="Group 200" clip-path="url(#clip-path-3)">
            <path id="Path_442" data-name="Path 442" d="M150.2,60.5l8.854,6.8v1.972l-8.854-6.8Z" transform="translate(-150.2 -60.5)" fill="#f1f1f1"/>
          </g>
        </g>
        <g id="Group_203" data-name="Group 203" transform="translate(58.07 26.445)" opacity="0.3">
          <g id="Group_202" data-name="Group 202" clip-path="url(#clip-path-3)">
            <path id="Path_443" data-name="Path 443" d="M150.2,68.4l8.854,6.8v1.972l-8.854-6.8Z" transform="translate(-150.2 -68.4)" fill="#f1f1f1"/>
          </g>
        </g>
        <rect id="Rectangle_692" data-name="Rectangle 692" width="13.841" height="3.58" transform="translate(55.596 32.824)" fill="#c0272d"/>
        <rect id="Rectangle_693" data-name="Rectangle 693" width="8.854" height="12.159" transform="translate(58.07 46.355)" fill="#9fd6ed"/>
        <path id="Path_444" data-name="Path 444" d="M147.2,131.337h11.212V116.8H147.2ZM148.36,118h8.854v12.14H148.36Z" transform="translate(-90.29 -71.643)" fill="#1a1a1a"/>
        <g id="Group_205" data-name="Group 205" transform="translate(58.07 46.665)" opacity="0.3">
          <g id="Group_204" data-name="Group 204" clip-path="url(#clip-path-3)">
            <path id="Path_445" data-name="Path 445" d="M150.2,120.7l8.854,6.8v1.972l-8.854-6.8Z" transform="translate(-150.2 -120.7)" fill="#f1f1f1"/>
          </g>
        </g>
        <g id="Group_207" data-name="Group 207" transform="translate(58.07 49.719)" opacity="0.3">
          <g id="Group_206" data-name="Group 206" clip-path="url(#clip-path-3)">
            <path id="Path_446" data-name="Path 446" d="M150.2,128.6l8.854,6.8v1.972l-8.854-6.8Z" transform="translate(-150.2 -128.6)" fill="#f1f1f1"/>
          </g>
        </g>
        <rect id="Rectangle_696" data-name="Rectangle 696" width="13.841" height="3.58" transform="translate(55.596 56.098)" fill="#c0272d"/>
        <path id="Path_447" data-name="Path 447" d="M75.265,0,59.8,13.918h3.132L75.265,2.784,87.559,13.918h3.132Z" transform="translate(-36.68)" fill="#c0272d"/>
        <rect id="Rectangle_697" data-name="Rectangle 697" width="13.841" height="1.214" transform="translate(7.539 36.419)" fill="#b2b2b2"/>
        <rect id="Rectangle_698" data-name="Rectangle 698" width="13.841" height="1.214" transform="translate(7.539 59.462)" fill="#b2b2b2"/>
        <rect id="Rectangle_699" data-name="Rectangle 699" width="13.841" height="1.214" transform="translate(55.596 36.419)" fill="#b2b2b2"/>
        <rect id="Rectangle_700" data-name="Rectangle 700" width="13.841" height="1.214" transform="translate(31.625 32.36)" fill="#b2b2b2"/>
        <rect id="Rectangle_701" data-name="Rectangle 701" width="13.841" height="1.214" transform="translate(55.596 59.462)" fill="#b2b2b2"/>
      </g>
    </g>
  </g>
</svg>
