<svg xmlns="http://www.w3.org/2000/svg" xmlns:xlink="http://www.w3.org/1999/xlink" width="100.009" height="64.635" viewBox="0 0 100.009 64.635">
  <defs>
    <clipPath id="clip-path">
      <rect id="Rectangle_1152" data-name="Rectangle 1152" width="100.009" height="64.635" fill="none"/>
    </clipPath>
    <clipPath id="clip-path-3">
      <rect id="Rectangle_1145" data-name="Rectangle 1145" width="8.8" height="6.079" fill="none"/>
    </clipPath>
  </defs>
  <g id="Artwork_154" data-name="Artwork 154" transform="translate(50.005 32.318)">
    <g id="Group_431" data-name="Group 431" transform="translate(-50.005 -32.318)" clip-path="url(#clip-path)">
      <rect id="Rectangle_1131" data-name="Rectangle 1131" width="52.475" height="33.317" transform="translate(1.276 29.661)" fill="#e5e5e5"/>
      <rect id="Rectangle_1132" data-name="Rectangle 1132" width="54.994" height="13.607" transform="translate(1.276 16.024)" fill="#a62227"/>
      <g id="Group_430" data-name="Group 430" clip-path="url(#clip-path)">
        <path id="Path_1071" data-name="Path 1071" d="M0,187.785v-1.243A1.112,1.112,0,0,1,1.178,185.5H50.414a1.112,1.112,0,0,1,1.178,1.046v1.243Z" transform="translate(0 -124.834)" fill="#c59b6d"/>
        <rect id="Rectangle_1133" data-name="Rectangle 1133" width="51.591" height="0.458" transform="translate(0 62.493)" fill="#8b6239"/>
        <rect id="Rectangle_1134" data-name="Rectangle 1134" width="26.728" height="3.404" transform="translate(9.782 35.743)" fill="#a62227"/>
        <rect id="Rectangle_1135" data-name="Rectangle 1135" width="26.728" height="3.404" transform="translate(9.782 39.144)" fill="#c0272d"/>
        <rect id="Rectangle_1136" data-name="Rectangle 1136" width="26.728" height="3.404" transform="translate(9.782 42.545)" fill="#a62227"/>
        <rect id="Rectangle_1137" data-name="Rectangle 1137" width="26.728" height="3.404" transform="translate(9.782 45.946)" fill="#c0272d"/>
        <rect id="Rectangle_1138" data-name="Rectangle 1138" width="26.728" height="3.404" transform="translate(9.782 49.347)" fill="#a62227"/>
        <rect id="Rectangle_1139" data-name="Rectangle 1139" width="26.728" height="3.404" transform="translate(9.782 52.748)" fill="#c0272d"/>
        <rect id="Rectangle_1140" data-name="Rectangle 1140" width="26.728" height="3.404" transform="translate(9.782 56.149)" fill="#a62227"/>
        <rect id="Rectangle_1141" data-name="Rectangle 1141" width="26.728" height="3.404" transform="translate(9.782 59.55)" fill="#c0272d"/>
        <rect id="Rectangle_1142" data-name="Rectangle 1142" width="5.005" height="8.823" transform="translate(51.689 9.712)" fill="#a62227"/>
        <path id="Path_1072" data-name="Path 1072" d="M187.439,41.5,162.9,17.5l-24.5,24v32.6h49.039Z" transform="translate(-93.123 -11.777)" fill="#f1f1f1"/>
        <path id="Path_1073" data-name="Path 1073" d="M187.439,44.283V41.5L162.9,17.5l-24.5,24v2.78l24.5-24.069Z" transform="translate(-93.123 -11.777)" fill="#e5e5e5"/>
        <path id="Path_1074" data-name="Path 1074" d="M186.091,192.885v-1.243a1.112,1.112,0,0,0-1.178-1.046H135.678a1.112,1.112,0,0,0-1.178,1.046v1.243Z" transform="translate(-90.499 -128.266)" fill="#c59b6d"/>
        <rect id="Rectangle_1143" data-name="Rectangle 1143" width="51.591" height="0.458" transform="translate(44.001 64.161)" fill="#8b6239"/>
        <path id="Path_1075" data-name="Path 1075" d="M203.336,63.665a6.967,6.967,0,1,1-2.053-4.937,6.967,6.967,0,0,1,2.053,4.937" transform="translate(-127.438 -38.158)" fill="#9fd6ed"/>
        <path id="Path_1076" data-name="Path 1076" d="M203.336,63.665a6.967,6.967,0,1,1-2.053-4.937A6.967,6.967,0,0,1,203.336,63.665Z" transform="translate(-127.438 -38.158)" fill="none" stroke="#c0272d" stroke-miterlimit="10" stroke-width="1.164"/>
        <line id="Line_1" data-name="Line 1" y2="13.964" transform="translate(68.897 18.542)" fill="none" stroke="#c0272d" stroke-miterlimit="10" stroke-width="1.164"/>
        <line id="Line_2" data-name="Line 2" x1="13.969" transform="translate(61.929 25.508)" fill="none" stroke="#c0272d" stroke-miterlimit="10" stroke-width="1.165"/>
        <rect id="Rectangle_1144" data-name="Rectangle 1144" width="8.8" height="12.047" transform="translate(53.587 37.673)" fill="#9fd6ed"/>
        <path id="Path_1077" data-name="Path 1077" d="M160.3,125.989h11.123V111.6H160.3Zm9.945-1.177h-8.8V112.777h8.8Z" transform="translate(-107.858 -75.105)" fill="#c0272d"/>
        <g id="Group_427" data-name="Group 427" transform="translate(53.587 37.967)" opacity="0.3">
          <g id="Group_426" data-name="Group 426" clip-path="url(#clip-path-3)">
            <path id="Path_1078" data-name="Path 1078" d="M172.6,116.1l-8.8,4.153v1.929l8.8-4.12Z" transform="translate(-163.8 -116.1)" fill="#f1f1f1"/>
          </g>
        </g>
        <g id="Group_429" data-name="Group 429" transform="translate(53.587 41.008)" opacity="0.3">
          <g id="Group_428" data-name="Group 428" clip-path="url(#clip-path-3)">
            <path id="Path_1079" data-name="Path 1079" d="M172.6,125.4l-8.8,4.153v1.929l8.8-4.12Z" transform="translate(-163.8 -125.4)" fill="#f1f1f1"/>
          </g>
        </g>
        <rect id="Rectangle_1147" data-name="Rectangle 1147" width="13.642" height="4.683" transform="translate(51.166 47.385)" fill="#a62227"/>
        <path id="Path_1080" data-name="Path 1080" d="M161.607,137.1a1.331,1.331,0,0,0-.949-1.341.818.818,0,0,0-1.439.2,1.374,1.374,0,0,0-2.388,1.341.883.883,0,0,0-.393,1.145H162.2a.85.85,0,0,0-.622-1.373" transform="translate(-105.207 -91.085)" fill="#8bc53f"/>
        <path id="Path_1081" data-name="Path 1081" d="M180.449,137.1a1.207,1.207,0,0,1,0-.131,1.243,1.243,0,0,1,.949-1.21.818.818,0,0,1,1.439.2,1.374,1.374,0,0,1,2.388,1.341.883.883,0,0,1,.393,1.145h-5.791a.85.85,0,0,1,.622-1.373" transform="translate(-120.875 -91.085)" fill="#8bc53f"/>
        <rect id="Rectangle_1148" data-name="Rectangle 1148" width="10.305" height="26.021" transform="translate(74.95 36.299)" fill="#c59b6d"/>
        <path id="Path_1082" data-name="Path 1082" d="M227.3,109.3v27.175h1.178V135.3h-.033V110.445h9.16V135.3h-.033v1.177h1.178V109.3Z" transform="translate(-152.939 -73.557)" fill="#c0272d"/>
        <rect id="Rectangle_1149" data-name="Rectangle 1149" width="13.119" height="2.299" transform="translate(73.543 62.33)" fill="#a62227"/>
        <path id="Path_1083" data-name="Path 1083" d="M240.9,125.762l-3.435.1-3.435.065H233.9V116.9h7.263v.164l-.065,4.349v2.158Zm0,0-.065-2.158v-2.158l-.065-4.349.164.164h-6.9l.2-.2v8.7l-.131-.131,3.435.065,3.435.1" transform="translate(-157.38 -78.671)" fill="#a57c52"/>
        <path id="Path_1084" data-name="Path 1084" d="M240.9,165.695l-3.435.1-3.435.065H233.9V156.8h7.263v.164l-.065,4.349v2.158Zm0,0-.065-2.158v-2.158l-.065-4.349.164.163h-6.9l.2-.2v8.7l-.131-.131,3.435.065,3.435.1" transform="translate(-157.38 -105.523)" fill="#a57c52"/>
        <path id="Path_1085" data-name="Path 1085" d="M253.978,150.789a.589.589,0,1,1-.589-.589.589.589,0,0,1,.589.589" transform="translate(-170.097 -101.082)" fill="#754c24"/>
        <path id="Path_1086" data-name="Path 1086" d="M151.2,0,121,30.184h5.594L151.2,6.311l24.6,23.872h5.627Z" transform="translate(-81.415)" fill="#c0272d"/>
        <rect id="Rectangle_1150" data-name="Rectangle 1150" width="7.623" height="4.271" rx="1.178" transform="translate(50.381 6.41)" fill="#c0272d"/>
      </g>
    </g>
  </g>
</svg>
